<svg width="32" height="32" viewBox="0 0 32 32" fill="none" xmlns="http://www.w3.org/2000/svg">
<g clip-path="url(#clip0_9356_2254)">
<path d="M20 16L25.89 16C25.7042 17.2377 25.2622 18.423 24.5924 19.4802C23.9226 20.5374 23.0397 21.4433 22 22.14L20.21 23.34L21.31 25L23.1 23.8C24.6067 22.7959 25.8423 21.4354 26.6971 19.8393C27.5518 18.2431 27.9994 16.4606 28 14.65L28 8C28 7.46957 27.7893 6.96086 27.4142 6.58579C27.0391 6.21071 26.5304 6 26 6L20 6C19.4696 6 18.9609 6.21071 18.5858 6.58579C18.2107 6.96086 18 7.46957 18 8L18 14C18 14.5304 18.2107 15.0391 18.5858 15.4142C18.9609 15.7893 19.4696 16 20 16Z" fill="#2463EB"/>
<path d="M6 16L11.89 16C11.7041 17.2377 11.2622 18.423 10.5924 19.4802C9.92261 20.5374 9.03968 21.4433 8 22.14L6.21 23.34L7.3 25L9.1 23.8C10.6067 22.7959 11.8423 21.4354 12.6971 19.8393C13.5518 18.2431 13.9994 16.4606 14 14.65L14 8C14 7.46957 13.7893 6.96086 13.4142 6.58579C13.0391 6.21071 12.5304 6 12 6L6 6C5.46957 6 4.96086 6.21071 4.58579 6.58579C4.21072 6.96086 4 7.46957 4 8L4 14C4 14.5304 4.21072 15.0391 4.58579 15.4142C4.96086 15.7893 5.46957 16 6 16Z" fill="#2463EB"/>
</g>
<defs>
<clipPath id="clip0_9356_2254">
<rect width="32" height="32" fill="white"/>
</clipPath>
</defs>
</svg>
